<svg xmlns="http://www.w3.org/2000/svg" width="98" height="128" fill="none" xmlns:v="https://vecta.io/nano"><path d="M45.98 3.873c-.649.673-5.252 6.277-10.228 12.453L20.856 34.802c-3.216 3.986-5.848 7.42-5.848 7.63s14.772.382 33.151.382c30.079 0 33.126-.065 32.882-.7-.148-.385-3.139-4.208-6.648-8.496L62.035 18.391l-5.978-7.43v5.529c0 5.43.276 6.654 2.045 9.053.066.09 1.058.339 2.204.553 3.969.742 4.637 2.432 2.079 5.264-1.563 1.73-2.118 4.316-1.234 5.747 1.091 1.766-2.03 3.34-4.375 2.205-2.196-1.063-3.177-1.115-4.692-.249-3.155 1.804-5.112.489-4.685-3.147.286-2.43.261-2.503-1.485-4.397-2.508-2.721-2.067-4.651 1.193-5.228 2.918-.517 3.208-.713 4.323-2.915 1.032-2.038 1.095-2.568 1.095-9.396V6.743L51.164 5.03c-2.255-2.837-3.333-3.077-5.183-1.156l-.001-.001zm7.297 23.304c-.436.588-1.429 1.393-2.207 1.789-1.903.967-1.882.927-1.007 1.894.424.468.872 1.611.997 2.541l.227 1.689h5.872l.084-1.511c.046-.831.489-2.059.983-2.728l.899-1.216-1.528-.504c-.84-.277-1.978-1.071-2.528-1.764l-1-1.259-.792 1.07v-.001zM20.916 55.005l-9.55 11.737c-3.369 4.084-3.653 3.879 5.381 3.879h7.919l-.587-1.132c-1.241-2.391.142-3.923 4.119-4.564 2.754-.444 4.907-1.426 4.907-2.24 0-.226.596-1.422 1.324-2.657 1.288-2.184 1.324-2.404 1.324-7.964v-5.719h-7.824l-7.012 8.66h-.001zm18.367-3.217v5.444l1.832 3.372c1.978 3.64 2.382 3.912 6.673 4.492 3.291.445 4.349 2.018 3.2 4.752-.306.729.722.772 18.076.772 13.193 0 18.356-.138 18.239-.486-.089-.267-4.409-5.729-9.6-12.138l-9.438-11.652H39.281v5.444h.002zm-2.577 11.52c-.961 2.657-4.631 5.094-7.685 5.103-1.14.004-.953.537.781 2.218 1.871 1.813 2.553 4.063 2.152 7.09l-.299 2.252 1.938-.997c2.584-1.33 5.378-1.35 7.839-.057 2.312 1.215 2.276 1.237 1.838-1.155-.583-3.179.013-4.882 2.748-7.853l1.265-1.374-2.179-.289c-2.791-.37-5.369-2.216-6.453-4.619-1.004-2.226-1.242-2.265-1.946-.319h.001zM15.669 79.737L6.952 90.629c-2.367 2.947-4.303 5.511-4.303 5.696s20.458.337 45.462.337l45.462-.359c0-.197-3.982-5.262-8.849-11.255l-8.849-10.897H61.383c-16.645 0-15.169-.484-14.44 4.732.72 5.153-1.238 6.271-6.335 3.618-2.849-1.483-3.172-1.468-6.716.313-4.617 2.32-6.551.885-5.705-4.234.729-4.413.709-4.434-4.067-4.403l-4.035.026-4.414 5.533-.002.001zm28.028 31.974c0 14.076.139 14.498 4.779 14.517 1.04.004 1.845-.371 2.759-1.284l1.29-1.29v-23.461h-8.828v11.518h0z" fill="#000"/></svg>