<svg width="243" height="247" viewBox="0 0 243 247" fill="none" xmlns="http://www.w3.org/2000/svg">
<path fill-rule="evenodd" clip-rule="evenodd" d="M150 85C150 120.898 120.898 150 85 150C49.1016 150 20 120.898 20 85C20 49.1015 49.1016 20 85 20C120.898 20 150 49.1015 150 85ZM135.349 153.491C121.256 163.868 103.844 170 85 170C38.0557 170 0 131.944 0 85C0 38.0558 38.0557 0 85 0C131.944 0 170 38.0558 170 85C170 105.89 162.464 125.02 149.962 139.82L239.43 229.288C243.335 233.193 243.335 239.525 239.43 243.43C235.525 247.335 229.193 247.335 225.288 243.43L135.349 153.491Z" fill="black"/>
</svg>
