<svg xmlns="http://www.w3.org/2000/svg" width="683" height="683" fill="none" xmlns:v="https://vecta.io/nano"><g clip-path="url(#A)"><path d="M61.787 0h126.466c9.88 1.107 18.187 9.96 18 20l-.013 184.36c-53.987-.013-107.973.013-161.96-.013l.013-184.454C44.16 10.04 52.187 1.44 61.787 0zm580.52 27.627c3.013-7.093 8.413-13.92 16.48-15.2 11.373-2.613 22.933 6.533 23.88 17.973v3.027c-.72 6.213-4.32 11.427-7.08 16.853l-62.733 118.533c9.88 9.774 17.2 22.094 20.853 35.52l-149.733.014c5.413-20.227 19.32-37.96 37.76-47.907 16.933-9.493 37.44-11.84 56.24-7.253l64.333-121.56h0zm-396 63.32l175.107.013c10.52-.147 19.933 9.173 19.88 19.693l.013 93.694h-195v-113.4h0zM11.533 246.32c5.107-2.587 10.973-1.893 16.493-1.973H654.64c5.494.066 11.334-.6 16.427 1.973 6.36 2.853 10.573 9.253 11.6 16.04v33.92c-.973 9.947-9.733 18.467-19.84 18.36H19.88c-10.027.12-18.747-8.253-19.88-18.08v-34.04c.933-6.867 5.147-13.293 11.533-16.2h0zm32.733 108.453H638.4l-.013 277.254c.28 13.293-4.893 26.627-14.36 36.027-8.32 8.56-19.867 13.546-31.707 14.613H91.467c-12.56-.667-24.827-6.12-33.48-15.293-9.08-9.347-14.013-22.387-13.707-35.387l-.013-277.214h0zm289.04 59.827c-8.96 2.12-16.787 8.32-21.014 16.48l-16.32 32.854-32.133 4.626c-5.12.667-10.253 1.84-14.747 4.494-11.626 6.44-18.253 20.466-16.186 33.56 1.026 7.44 4.946 14.266 10.386 19.386l24.68 24.04-5.973 35.2c-1.093 6.587-.307 13.52 2.613 19.56 5.307 11.374 17.52 19.174 30.107 18.947 5.787.04 11.427-1.8 16.493-4.52l30.147-15.8 25.72 13.52c4.974 2.52 9.934 5.333 15.48 6.373 9.72 1.68 20.12-1.266 27.454-7.866 8.226-7.147 12.426-18.534 10.786-29.307l-6.106-36.093 25.933-25.32c9.133-8.96 11.987-23.44 7.107-35.24C443.747 479 434.014 471 422.92 469.24l-36.226-5.333-12.747-25.773c-2.44-4.92-4.72-10.054-8.533-14.094-7.907-8.733-20.761-12.32-32.107-9.44h0zm-3.52 71.174l11.546-23.227 11.614 23.32c4.76 9.067 13.986 15.56 24.12 17.053l24.92 3.68-18.547 18.147c-6.92 7.013-10.346 17.28-9.026 27.053 1.306 8.707 2.986 17.36 4.386 26.054l-22.373-11.707c-9.307-4.853-20.907-4.853-30.214.013l-22.346 11.707 4.36-26c1.333-9.8-2.094-20.093-9-27.16-6.08-6.133-12.374-12.04-18.507-18.12l26.08-3.893c9.707-1.747 18.427-8.16 22.987-16.92h0z" fill="#fff"/></g><defs><clipPath id="A"><path fill="#fff" d="M0 0h682.667v682.667H0z"/></clipPath></defs></svg>